<svg height="512pt" viewBox="0 0 512 512" width="512pt" xmlns="http://www.w3.org/2000/svg"><path d="m158.824219 182.648438c15.742187 0 28.546875-12.804688 28.546875-28.542969s-12.804688-28.542969-28.546875-28.542969c-15.734375 0-28.542969 12.804688-28.542969 28.542969s12.808594 28.542969 28.542969 28.542969zm0 0"/><path d="m143.816406 264.753906c17.394532-10.304687 38.792969-9.921875 55.828125 1l40.652344 26.0625c8.574219 5.496094 19.589844 4.804688 27.414063-1.71875l63.304687-52.820312c20.222656-16.875 49.292969-16.539063 69.121094.789062l101.875 89.171875c6.582031-22.859375 9.988281-46.789062 9.988281-71.238281 0-68.378906-26.628906-132.667969-74.980469-181.019531-48.351562-48.351563-112.640625-74.980469-181.019531-74.980469s-132.667969 26.628906-181.019531 74.980469c-48.351563 48.351562-74.980469 112.640625-74.980469 181.019531 0 29.46875 4.945312 58.175781 14.441406 85.175781zm15.007813-169.191406c32.28125 0 58.546875 26.261719 58.546875 58.542969s-26.265625 58.542969-58.546875 58.542969c-32.277344 0-58.542969-26.261719-58.542969-58.542969s26.265625-58.542969 58.542969-58.542969zm0 0"/><path d="m380.386719 260.648438c-8.640625-7.554688-21.328125-7.699219-30.152344-.339844l-63.304687 52.820312c-17.925782 14.957032-43.171876 16.539063-62.824219 3.941406l-40.652344-26.0625c-7.429687-4.769531-16.765625-4.933593-24.363281-.433593l-132.90625 78.507812c12.253906 24.84375 28.636718 47.777344 48.796875 67.9375 48.351562 48.351563 112.640625 74.980469 181.019531 74.980469s132.667969-26.628906 181.019531-74.980469c23.238281-23.234375 41.457031-50.152343 54.113281-79.433593zm0 0"/></svg>