<?xml version="1.0" encoding="iso-8859-1"?>
<!-- Generator: Adobe Illustrator 18.0.0, SVG Export Plug-In . SVG Version: 6.00 Build 0)  -->
<!DOCTYPE svg PUBLIC "-//W3C//DTD SVG 1.1//EN" "http://www.w3.org/Graphics/SVG/1.1/DTD/svg11.dtd">
<svg version="1.1" id="Capa_1" xmlns="http://www.w3.org/2000/svg" xmlns:xlink="http://www.w3.org/1999/xlink" x="0px" y="0px"
	 viewBox="0 0 430 430" style="enable-background:new 0 0 430 430;" xml:space="preserve">
<path d="M215,0C96.451,0,0,96.451,0,215s96.451,215,215,215s215-96.451,215-215S333.549,0,215,0z M384.91,285.943
	c-21.135,50.439-64.104,89.547-117.032,105.441c0.949-1.762,1.868-3.543,2.757-5.344c4.547-9.202,9.325-15.69,17.344-22.161
	c6.137-4.956,18.186-12.632,16.216-22.311c-1.421-6.995-9.407-9.865-15.442-11.575c-9.575-2.713-19.818-3.416-29.699-4.1
	c-8.557-0.598-17.443-0.293-25.797-2.424c-12.502-3.182-15.32-14.004-16.111-25.412c-0.705-10.141-0.554-20.567-5.541-29.744
	c-6.422-11.811-21.202-15.17-33.458-16.297c-10.346-0.947-20.679-0.448-30.969-2.172c-9.9-1.658-19.276-5.135-29.442-4.741
	c-13.175,0.508-19.092,9.438-24.712,19.765c-2.774,5.1-20.296,44.321-30.591,53.115c-17.752-26.207-28.919-57.215-31.143-90.632
	c1.455-0.392,2.897-0.935,4.361-1.664c5.728-2.844,9.741-7.978,15.974-10.011c5.943-1.936,13.621-0.219,19.693,0.376
	c6.042,0.591,12.178,1.217,18.225,0.394c12.071-1.649,18.467-9.987,20.395-21.627c1.146-6.953,0.252-13.945,0.459-20.946
	c0.327-10.909,7.486-14.823,17.351-15.751c18.634-1.75,62.101,3.188,62.981-25.49c0.375-12.267-14.225-18.598-23.734-21.872
	c-18.516-6.37-38.747-4.146-57.685-8.571c-10.073-2.354-18.569-8.637-25.693-16.063C117.061,52.047,163.598,30.864,215,30.864
	c10.994,0,21.755,0.97,32.219,2.828c-5.35,0.994-10.631,2.406-15.769,4.481c-27.107,10.929-27.923,41.682-16.075,64.785
	c7.348,14.328,19.248,26.332,31.678,36.314c12.033,9.659,25.181,15.367,38.523,22.694c17.701,9.733,15.564,35.151,20.042,52.277
	c3.777,14.443,12.847,26.627,27.143,31.627c8.643,3.02,18.795,0.663,26.363,6.685c6.5,5.157,8.027,15.714,11.742,22.809
	C374.566,282.443,379.491,285.423,384.91,285.943z"/>
<g>
</g>
<g>
</g>
<g>
</g>
<g>
</g>
<g>
</g>
<g>
</g>
<g>
</g>
<g>
</g>
<g>
</g>
<g>
</g>
<g>
</g>
<g>
</g>
<g>
</g>
<g>
</g>
<g>
</g>
</svg>
