<svg height="682pt" viewBox="-21 -22 682.66669 682" width="682pt" xmlns="http://www.w3.org/2000/svg"><path d="m112.28125 355.890625v-74.855469c0-10.335937-8.378906-18.714844-18.710938-18.714844h-74.855468c-10.335938 0-18.714844 8.378907-18.714844 18.714844v74.855469c0 10.332031 8.378906 18.710937 18.714844 18.710937h74.855468c10.332032 0 18.710938-8.378906 18.710938-18.710937zm0 0"/><path d="m621.285156 262.320312h-74.855468c-10.332032 0-18.710938 8.378907-18.710938 18.714844v74.855469c0 10.332031 8.378906 18.710937 18.710938 18.710937h74.855468c10.335938 0 18.714844-8.378906 18.714844-18.710937v-74.855469c0-10.335937-8.378906-18.714844-18.714844-18.714844zm0 0"/><path d="m533.953125 526.804688h-74.851563c-10.332031 0-18.710937 8.378906-18.710937 18.714843v74.851563c0 10.339844 8.378906 18.710937 18.710937 18.710937h74.851563c10.339844 0 18.71875-8.371093 18.71875-18.710937v-74.851563c0-10.335937-8.378906-18.714843-18.71875-18.714843zm0 0"/><path d="m180.898438 526.804688h-74.851563c-10.339844 0-18.71875 8.378906-18.71875 18.714843v74.851563c0 10.339844 8.378906 18.710937 18.71875 18.710937h74.851563c10.332031 0 18.710937-8.371093 18.710937-18.710937v-74.851563c0-10.335937-8.378906-18.714843-18.710937-18.714843zm0 0"/><path d="m459.101562 112.613281h74.851563c10.339844 0 18.71875-8.378906 18.71875-18.710937v-74.851563c0-10.339843-8.378906-18.71875-18.71875-18.71875h-74.851563c-10.332031 0-18.710937 8.378907-18.710937 18.71875v74.851563c0 10.332031 8.378906 18.710937 18.710937 18.710937zm0 0"/><path d="m237.035156 39.367188h165.929688v37.425781h-165.929688zm0 0"/><path d="m94.332031 224.914062 43.226563-74.875h-31.511719c-3.789063 0-7.488281-.378906-11.066406-1.097656l-43.851563 75.953125h42.441406c.253907 0 .507813.015625.761719.019531zm0 0"/><path d="m533.953125 150.039062h-32.761719l43.246094 74.910157c.664062-.027344 1.324219-.054688 1.992188-.054688h41.195312l-43.738281-75.753906c-3.222657.582031-6.539063.898437-9.933594.898437zm0 0"/><path d="m106.046875 489.375h32.953125l-44.667969-77.367188c-.253906.003907-.507812.019532-.769531.019532h-42.433594l45.15625 78.21875c3.171875-.5625 6.429688-.871094 9.761719-.871094zm0 0"/><path d="m237.035156 560.128906h165.929688v37.425782h-165.929688zm0 0"/><path d="m544.4375 411.980469-44.6875 77.394531h34.203125c2.9375 0 5.816406.230469 8.628906.664062l45.042969-78.011718h-41.195312c-.667969 0-1.328126-.023438-1.992188-.046875zm0 0"/><path d="m180.898438.332031h-74.851563c-10.339844 0-18.71875 8.378907-18.71875 18.71875v74.851563c0 10.332031 8.378906 18.710937 18.71875 18.710937h74.851563c10.332031 0 18.710937-8.378906 18.710937-18.710937v-74.851563c0-10.339843-8.378906-18.71875-18.710937-18.71875zm0 0"/></svg>